<?xml version="1.0" encoding="UTF-8" standalone="no"?>
<!-- Created with Inkscape (http://www.inkscape.org/) -->

<svg
   xmlns:dc="http://purl.org/dc/elements/1.1/"
   xmlns:cc="http://creativecommons.org/ns#"
   xmlns:rdf="http://www.w3.org/1999/02/22-rdf-syntax-ns#"
   xmlns:svg="http://www.w3.org/2000/svg"
   xmlns="http://www.w3.org/2000/svg"
   xmlns:sodipodi="http://sodipodi.sourceforge.net/DTD/sodipodi-0.dtd"
   xmlns:inkscape="http://www.inkscape.org/namespaces/inkscape"
   id="svg2"
   version="1.1"
   inkscape:version="0.91 r13725"
   xml:space="preserve"
   width="540"
   height="450"
   viewBox="0 0 540 450"
   sodipodi:docname="source_impunity_mex.svg"><metadata
     id="metadata8"><rdf:RDF><cc:Work
         rdf:about=""><dc:format>image/svg+xml</dc:format><dc:type
           rdf:resource="http://purl.org/dc/dcmitype/StillImage" /><dc:title></dc:title></cc:Work></rdf:RDF></metadata><defs
     id="defs6"><clipPath
       clipPathUnits="userSpaceOnUse"
       id="clipPath30"><path
         d="M 0,0 432,0 432,360 0,360 0,0 Z"
         id="path32"
         inkscape:connector-curvature="0" /></clipPath><clipPath
       clipPathUnits="userSpaceOnUse"
       id="clipPath42"><path
         d="m 8.22,8.22 418.3,0 0,298.74 -418.3,0 0,-298.74 z"
         id="path44"
         inkscape:connector-curvature="0" /></clipPath></defs><sodipodi:namedview
     pagecolor="#ffffff"
     bordercolor="#666666"
     borderopacity="1"
     objecttolerance="10"
     gridtolerance="10"
     guidetolerance="10"
     inkscape:pageopacity="0"
     inkscape:pageshadow="2"
     inkscape:window-width="967"
     inkscape:window-height="673"
     id="namedview4"
     showgrid="false"
     inkscape:zoom="1.0466667"
     inkscape:cx="270"
     inkscape:cy="225"
     inkscape:window-x="0"
     inkscape:window-y="0"
     inkscape:window-maximized="0"
     inkscape:current-layer="g10" /><g
     id="g10"
     inkscape:groupmode="layer"
     inkscape:label="source_impunity_mex"
     transform="matrix(1.25,0,0,-1.25,0,450)"><g
       id="g12" /><g
       id="g14" /><g
       id="g16" /><g
       id="g18" /><g
       id="g20" /><g
       id="g22" /><g
       id="g24" /><g
       id="g26"><g
         id="g28"
         clip-path="url(#clipPath30)"><path
           d="M 0,0 432,0 432,360 0,360 0,0 Z"
           style="fill:#ffffff;fill-opacity:1;fill-rule:nonzero;stroke:#ffffff;stroke-width:1.07000005;stroke-linecap:round;stroke-linejoin:round;stroke-miterlimit:10;stroke-dasharray:none;stroke-opacity:1"
           id="path34"
           inkscape:connector-curvature="0" /></g></g><g
       id="g36" /><path
       d="m 8.22,8.22 418.3,0 0,298.74 -418.3,0 0,-298.74 z"
       style="fill:#ffffff;fill-opacity:1;fill-rule:nonzero;stroke:none"
       id="path46"
       inkscape:connector-curvature="0" /><path
       d="m 8.22,50.3 418.3,0"
       style="fill:none;stroke:#ebebeb;stroke-width:0.52999997;stroke-linecap:butt;stroke-linejoin:round;stroke-miterlimit:10;stroke-dasharray:none;stroke-opacity:1"
       id="path48"
       inkscape:connector-curvature="0" /><path
       d="m 8.22,121.22 418.3,0"
       style="fill:none;stroke:#ebebeb;stroke-width:0.52999997;stroke-linecap:butt;stroke-linejoin:round;stroke-miterlimit:10;stroke-dasharray:none;stroke-opacity:1"
       id="path50"
       inkscape:connector-curvature="0" /><path
       d="m 8.22,192.14 418.3,0"
       style="fill:none;stroke:#ebebeb;stroke-width:0.52999997;stroke-linecap:butt;stroke-linejoin:round;stroke-miterlimit:10;stroke-dasharray:none;stroke-opacity:1"
       id="path52"
       inkscape:connector-curvature="0" /><path
       d="m 8.22,263.06 418.3,0"
       style="fill:none;stroke:#ebebeb;stroke-width:0.52999997;stroke-linecap:butt;stroke-linejoin:round;stroke-miterlimit:10;stroke-dasharray:none;stroke-opacity:1"
       id="path54"
       inkscape:connector-curvature="0" /><path
       d="m 8.56,8.22 0,298.74"
       style="fill:none;stroke:#ebebeb;stroke-width:0.52999997;stroke-linecap:butt;stroke-linejoin:round;stroke-miterlimit:10;stroke-dasharray:none;stroke-opacity:1"
       id="path56"
       inkscape:connector-curvature="0" /><path
       d="m 89.75,8.22 0,298.74"
       style="fill:none;stroke:#ebebeb;stroke-width:0.52999997;stroke-linecap:butt;stroke-linejoin:round;stroke-miterlimit:10;stroke-dasharray:none;stroke-opacity:1"
       id="path58"
       inkscape:connector-curvature="0" /><path
       d="m 170.93,8.22 0,298.74"
       style="fill:none;stroke:#ebebeb;stroke-width:0.52999997;stroke-linecap:butt;stroke-linejoin:round;stroke-miterlimit:10;stroke-dasharray:none;stroke-opacity:1"
       id="path60"
       inkscape:connector-curvature="0" /><path
       d="m 252.12,8.22 0,298.74"
       style="fill:none;stroke:#ebebeb;stroke-width:0.52999997;stroke-linecap:butt;stroke-linejoin:round;stroke-miterlimit:10;stroke-dasharray:none;stroke-opacity:1"
       id="path62"
       inkscape:connector-curvature="0" /><path
       d="m 333.31,8.22 0,298.74"
       style="fill:none;stroke:#ebebeb;stroke-width:0.52999997;stroke-linecap:butt;stroke-linejoin:round;stroke-miterlimit:10;stroke-dasharray:none;stroke-opacity:1"
       id="path64"
       inkscape:connector-curvature="0" /><path
       d="m 414.5,8.22 0,298.74"
       style="fill:none;stroke:#ebebeb;stroke-width:0.52999997;stroke-linecap:butt;stroke-linejoin:round;stroke-miterlimit:10;stroke-dasharray:none;stroke-opacity:1"
       id="path66"
       inkscape:connector-curvature="0" /><path
       d="m 8.22,14.84 418.3,0"
       style="fill:none;stroke:#ebebeb;stroke-width:1.07000005;stroke-linecap:butt;stroke-linejoin:round;stroke-miterlimit:10;stroke-dasharray:none;stroke-opacity:1"
       id="path68"
       inkscape:connector-curvature="0" /><path
       d="m 8.22,85.76 418.3,0"
       style="fill:none;stroke:#ebebeb;stroke-width:1.07000005;stroke-linecap:butt;stroke-linejoin:round;stroke-miterlimit:10;stroke-dasharray:none;stroke-opacity:1"
       id="path70"
       inkscape:connector-curvature="0" /><path
       d="m 8.22,156.68 418.3,0"
       style="fill:none;stroke:#ebebeb;stroke-width:1.07000005;stroke-linecap:butt;stroke-linejoin:round;stroke-miterlimit:10;stroke-dasharray:none;stroke-opacity:1"
       id="path72"
       inkscape:connector-curvature="0" /><path
       d="m 8.22,227.6 418.3,0"
       style="fill:none;stroke:#ebebeb;stroke-width:1.07000005;stroke-linecap:butt;stroke-linejoin:round;stroke-miterlimit:10;stroke-dasharray:none;stroke-opacity:1"
       id="path74"
       inkscape:connector-curvature="0" /><path
       d="m 8.22,298.52 418.3,0"
       style="fill:none;stroke:#ebebeb;stroke-width:1.07000005;stroke-linecap:butt;stroke-linejoin:round;stroke-miterlimit:10;stroke-dasharray:none;stroke-opacity:1"
       id="path76"
       inkscape:connector-curvature="0" /><path
       d="m 49.15,8.22 0,298.74"
       style="fill:none;stroke:#ebebeb;stroke-width:1.07000005;stroke-linecap:butt;stroke-linejoin:round;stroke-miterlimit:10;stroke-dasharray:none;stroke-opacity:1"
       id="path78"
       inkscape:connector-curvature="0" /><path
       d="m 130.34,8.22 0,298.74"
       style="fill:none;stroke:#ebebeb;stroke-width:1.07000005;stroke-linecap:butt;stroke-linejoin:round;stroke-miterlimit:10;stroke-dasharray:none;stroke-opacity:1"
       id="path80"
       inkscape:connector-curvature="0" /><path
       d="m 211.53,8.22 0,298.74"
       style="fill:none;stroke:#ebebeb;stroke-width:1.07000005;stroke-linecap:butt;stroke-linejoin:round;stroke-miterlimit:10;stroke-dasharray:none;stroke-opacity:1"
       id="path82"
       inkscape:connector-curvature="0" /><path
       d="m 292.72,8.22 0,298.74"
       style="fill:none;stroke:#ebebeb;stroke-width:1.07000005;stroke-linecap:butt;stroke-linejoin:round;stroke-miterlimit:10;stroke-dasharray:none;stroke-opacity:1"
       id="path84"
       inkscape:connector-curvature="0" /><path
       d="m 373.91,8.22 0,298.74"
       style="fill:none;stroke:#ebebeb;stroke-width:1.07000005;stroke-linecap:butt;stroke-linejoin:round;stroke-miterlimit:10;stroke-dasharray:none;stroke-opacity:1"
       id="path86"
       inkscape:connector-curvature="0" /><path
       d="m 34.86,64.27 c 0,1.08 0.88,1.96 1.95,1.96 1.08,0 1.96,-0.88 1.96,-1.96 0,-1.07 -0.88,-1.95 -1.96,-1.95 -1.07,0 -1.95,0.88 -1.95,1.95"
       style="fill:#7f7f7f;fill-opacity:0.70200004;fill-rule:nonzero;stroke:#7f7f7f;stroke-width:0.70999998;stroke-linecap:round;stroke-linejoin:round;stroke-miterlimit:10;stroke-dasharray:none;stroke-opacity:0.70200004"
       id="path88"
       inkscape:connector-curvature="0" /><path
       d="m 30.34,229.55 c 0,1.07 0.88,1.95 1.95,1.95 1.08,0 1.96,-0.88 1.96,-1.95 0,-1.08 -0.88,-1.96 -1.96,-1.96 -1.07,0 -1.95,0.88 -1.95,1.96"
       style="fill:#7f7f7f;fill-opacity:0.70200004;fill-rule:nonzero;stroke:#7f7f7f;stroke-width:0.70999998;stroke-linecap:round;stroke-linejoin:round;stroke-miterlimit:10;stroke-dasharray:none;stroke-opacity:0.70200004"
       id="path90"
       inkscape:connector-curvature="0" /><path
       d="m 298.19,93.62 c 0,1.08 0.88,1.96 1.96,1.96 1.07,0 1.95,-0.88 1.95,-1.96 0,-1.07 -0.88,-1.95 -1.95,-1.95 -1.08,0 -1.96,0.88 -1.96,1.95"
       style="fill:#7f7f7f;fill-opacity:0.70200004;fill-rule:nonzero;stroke:#7f7f7f;stroke-width:0.70999998;stroke-linecap:round;stroke-linejoin:round;stroke-miterlimit:10;stroke-dasharray:none;stroke-opacity:0.70200004"
       id="path92"
       inkscape:connector-curvature="0" /><path
       d="m 30.34,229.55 c 0,1.07 0.88,1.95 1.95,1.95 1.08,0 1.96,-0.88 1.96,-1.95 0,-1.08 -0.88,-1.96 -1.96,-1.96 -1.07,0 -1.95,0.88 -1.95,1.96"
       style="fill:#7f7f7f;fill-opacity:0.70200004;fill-rule:nonzero;stroke:#7f7f7f;stroke-width:0.70999998;stroke-linecap:round;stroke-linejoin:round;stroke-miterlimit:10;stroke-dasharray:none;stroke-opacity:0.70200004"
       id="path94"
       inkscape:connector-curvature="0" /><path
       d="m 35.38,40.94 c 0,1.08 0.88,1.96 1.95,1.96 1.08,0 1.96,-0.88 1.96,-1.96 0,-1.07 -0.88,-1.95 -1.96,-1.95 -1.07,0 -1.95,0.88 -1.95,1.95"
       style="fill:#7f7f7f;fill-opacity:0.70200004;fill-rule:nonzero;stroke:#7f7f7f;stroke-width:0.70999998;stroke-linecap:round;stroke-linejoin:round;stroke-miterlimit:10;stroke-dasharray:none;stroke-opacity:0.70200004"
       id="path96"
       inkscape:connector-curvature="0" /><path
       d="m 37.56,58.43 c 0,1.07 0.87,1.95 1.95,1.95 1.07,0 1.95,-0.88 1.95,-1.95 0,-1.08 -0.88,-1.96 -1.95,-1.96 -1.08,0 -1.95,0.88 -1.95,1.96"
       style="fill:#7f7f7f;fill-opacity:0.70200004;fill-rule:nonzero;stroke:#7f7f7f;stroke-width:0.70999998;stroke-linecap:round;stroke-linejoin:round;stroke-miterlimit:10;stroke-dasharray:none;stroke-opacity:0.70200004"
       id="path98"
       inkscape:connector-curvature="0" /><text
       transform="scale(1,-1)"
       style="font-variant:normal;font-weight:bold;font-size:14px;font-family:Helvetica;-inkscape-font-specification:Helvetica-Bold;writing-mode:lr-tb;fill:#fd6467;fill-opacity:1;fill-rule:nonzero;stroke:none"
       id="text100"
       x="325.65509"
       y="-111.14529"><tspan
         x="325.65509 333.43912 337.33112 345.8851 349.7771 353.6691 366.11511 374.6691 383.22311 391.7771 395.6691 404.22311 412.00711"
         y="-111.14529"
         sodipodi:role="line"
         id="tspan102">sin impunidad</tspan></text>
<text
       transform="scale(1,-1)"
       style="font-variant:normal;font-weight:bold;font-size:14px;font-family:Helvetica;-inkscape-font-specification:Helvetica-Bold;writing-mode:lr-tb;fill:#f78f71;fill-opacity:1;fill-rule:nonzero;stroke:none"
       id="text104"
       x="37.570255"
       y="-18.298662"><tspan
         x="37.570255 46.124256 53.908257 59.074257 66.858253 70.750259 78.534256"
         y="-18.298662"
         sodipodi:role="line"
         id="tspan106">parcial</tspan></text>
<text
       transform="scale(1,-1)"
       style="font-variant:normal;font-weight:bold;font-size:14px;font-family:Helvetica;-inkscape-font-specification:Helvetica-Bold;writing-mode:lr-tb;fill:#f1bb7b;fill-opacity:1;fill-rule:nonzero;stroke:none"
       id="text108"
       x="14.653313"
       y="-82.817963"><tspan
         x="14.653313 18.545313 30.991312 39.545311 48.099308 56.653309 60.545307 69.099312 76.883308"
         y="-82.817963"
         sodipodi:role="line"
         id="tspan110">impunidad</tspan></text>
<text
       transform="scale(1,-1)"
       style="font-variant:normal;font-weight:bold;font-size:14px;font-family:Helvetica;-inkscape-font-specification:Helvetica-Bold;writing-mode:lr-tb;fill:#ac3e3f;fill-opacity:1;fill-rule:nonzero;stroke:none"
       id="text112"
       x="21.58828"
       y="-276.89502"><tspan
         x="21.58828 29.37228 33.264278 41.818279 45.710281 49.60228 58.156281 62.53828"
         y="-276.89502"
         sodipodi:role="line"
         id="tspan114">sin info</tspan></text>
<text
       transform="scale(1,-1)"
       style="font-variant:normal;font-weight:normal;font-size:9.85000038px;font-family:'Zapf Dingbats';-inkscape-font-specification:ZapfDingbats;writing-mode:lr-tb;fill:#fd6467;fill-opacity:1;fill-rule:nonzero;stroke:#fd6467;stroke-width:0.70999998;stroke-linecap:round;stroke-linejoin:round;stroke-miterlimit:10;stroke-dasharray:none;stroke-opacity:1"
       id="text116"
       x="403.60999"
       y="-100.74"><tspan
         x="403.60999"
         y="-100.74"
         id="tspan118">●</tspan></text>
<text
       transform="scale(1,-1)"
       style="font-variant:normal;font-weight:normal;font-size:9.85000038px;font-family:'Zapf Dingbats';-inkscape-font-specification:ZapfDingbats;writing-mode:lr-tb;fill:#f78f71;fill-opacity:1;fill-rule:nonzero;stroke:#f78f71;stroke-width:0.70999998;stroke-linecap:round;stroke-linejoin:round;stroke-miterlimit:10;stroke-dasharray:none;stroke-opacity:1"
       id="text120"
       x="27.82"
       y="-18.379999"><tspan
         x="27.82"
         y="-18.379999"
         id="tspan122">●</tspan></text>
<text
       transform="scale(1,-1)"
       style="font-variant:normal;font-weight:normal;font-size:9.85000038px;font-family:'Zapf Dingbats';-inkscape-font-specification:ZapfDingbats;writing-mode:lr-tb;fill:#f1bb7b;fill-opacity:1;fill-rule:nonzero;stroke:#f1bb7b;stroke-width:0.70999998;stroke-linecap:round;stroke-linejoin:round;stroke-miterlimit:10;stroke-dasharray:none;stroke-opacity:1"
       id="text124"
       x="38.5"
       y="-70.669998"><tspan
         x="38.5"
         y="-70.669998"
         id="tspan126">●</tspan></text>
<text
       transform="scale(1,-1)"
       style="font-variant:normal;font-weight:normal;font-size:9.85000038px;font-family:'Zapf Dingbats';-inkscape-font-specification:ZapfDingbats;writing-mode:lr-tb;fill:#ac3e3f;fill-opacity:1;fill-rule:nonzero;stroke:#ac3e3f;stroke-width:0.70999998;stroke-linecap:round;stroke-linejoin:round;stroke-miterlimit:10;stroke-dasharray:none;stroke-opacity:1"
       id="text128"
       x="23.33"
       y="-289.97"><tspan
         x="23.33"
         y="-289.97"
         id="tspan130">●</tspan></text>
<text
       transform="scale(1,-1)"
       style="font-variant:normal;font-weight:normal;font-size:11px;font-family:Helvetica;-inkscape-font-specification:Helvetica;writing-mode:lr-tb;fill:#666666;fill-opacity:0.70200004;fill-rule:nonzero;stroke:none"
       id="text132"
       x="41.369995"
       y="-62.620003"><tspan
         x="41.369995 47.485989 51.313984 57.429977 63.545971 69.661964 72.719971 78.219963 82.047966 84.489967 93.652969 96.094963 102.21097 108.32697"
         y="-62.620003"
         sodipodi:role="line"
         id="tspan134">grupo criminal</tspan></text>
<text
       transform="scale(1,-1)"
       style="font-variant:normal;font-weight:normal;font-size:11px;font-family:Helvetica;-inkscape-font-specification:Helvetica;writing-mode:lr-tb;fill:#666666;fill-opacity:0.70200004;fill-rule:nonzero;stroke:none"
       id="text136"
       x="28.579235"
       y="-214.34605"><tspan
         x="28.579235 34.695236 37.753235 40.195236 45.695236 48.137238 54.253235 56.695236 62.811234 68.311234 71.369232 77.485229 83.601234 89.717232 92.159233 98.27523 102.21323 108.32923"
         y="-214.34605"
         sodipodi:role="line"
         id="tspan138">oficiales gobierno</tspan></text>
<text
       transform="scale(1,-1)"
       style="font-variant:normal;font-weight:normal;font-size:11px;font-family:Helvetica;-inkscape-font-specification:Helvetica;writing-mode:lr-tb;fill:#666666;fill-opacity:0.70200004;fill-rule:nonzero;stroke:none"
       id="text140"
       x="303.14096"
       y="-91.409683"><tspan
         x="303.14096 305.58298 311.69897 317.19897 323.31497 325.75696 331.87296"
         y="-91.409683"
         sodipodi:role="line"
         id="tspan142">locales</tspan></text>
<text
       transform="scale(1,-1)"
       style="font-variant:normal;font-weight:normal;font-size:11px;font-family:Helvetica;-inkscape-font-specification:Helvetica;writing-mode:lr-tb;fill:#666666;fill-opacity:0.70200004;fill-rule:nonzero;stroke:none"
       id="text144"
       x="15.88"
       y="-232.69"><tspan
         x="15.88 25.042999 27.484999 29.927 32.368999 35.427002 41.542999 45.206001 51.322002"
         y="-232.69"
         sodipodi:role="line"
         id="tspan146">militares</tspan></text>
<text
       transform="scale(1,-1)"
       style="font-variant:normal;font-weight:normal;font-size:11px;font-family:Helvetica;-inkscape-font-specification:Helvetica;writing-mode:lr-tb;fill:#666666;fill-opacity:0.70200004;fill-rule:nonzero;stroke:none"
       id="text148"
       x="44.140572"
       y="-36.436691"><tspan
         x="44.140572 50.256573 56.372574 61.872574 67.372574 73.488571 79.604568 85.720573 91.220573 93.662567 99.778572"
         y="-36.436691"
         sodipodi:role="line"
         id="tspan150">desconocido</tspan></text>
<text
       transform="scale(1,-1)"
       style="font-variant:normal;font-weight:normal;font-size:11px;font-family:Helvetica;-inkscape-font-specification:Helvetica;writing-mode:lr-tb;fill:#666666;fill-opacity:0.70200004;fill-rule:nonzero;stroke:none"
       id="text152"
       x="45.289989"
       y="-51.970009"><tspan
         x="45.289989 51.405991 54.463989 58.126987"
         y="-51.970009"
         sodipodi:role="line"
         id="tspan154">otro</tspan></text>
<path
       d="m 8.22,8.22 418.3,0 0,298.74 -418.3,0 0,-298.74 z"
       style="fill:none;stroke:#333333;stroke-width:1.07000005;stroke-linecap:round;stroke-linejoin:round;stroke-miterlimit:10;stroke-dasharray:none;stroke-opacity:1"
       id="path156"
       inkscape:connector-curvature="0" /><g
       id="g158" /><g
       id="g160" /><g
       id="g162" /><g
       id="g164" /><g
       id="g166" /><g
       id="g168" /><g
       id="g170" /><g
       id="g172" /><g
       id="g174" /><g
       id="g176" /><g
       id="g178" /><g
       id="g180" /><g
       id="g182" /><g
       id="g184" /><g
       id="g186" /><g
       id="g188" /><g
       id="g190" /><g
       id="g192" /><g
       id="g194" /><g
       id="g196" /><g
       id="g198" /><g
       id="g200" /><g
       id="g202" /><g
       id="g204" /><g
       id="g206" /><g
       id="g208" /><g
       id="g210" /><g
       id="g212" /><g
       id="g214" /><g
       id="g216" /><g
       id="g218" /><g
       id="g220" /><g
       id="g222" /><g
       id="g224" /><g
       id="g226" /><g
       id="g228"><text
         transform="matrix(1,0,0,-1,8.22,314.54)"
         style="font-variant:normal;font-weight:normal;font-size:10px;font-family:Helvetica;-inkscape-font-specification:Helvetica;writing-mode:lr-tb;fill:#000000;fill-opacity:1;fill-rule:nonzero;stroke:none"
         id="text230"><tspan
           x="0 6.6700001 11.67 17.23 22.23 24.450001 30.01 35.009998 37.23 42.790001 48.349998 51.130001 56.689999 62.25 65.029999 68.360001 73.919998 76.699997 78.919998 87.25 92.809998 98.370003 103.93 106.15 111.71 117.27 122.83 125.61 130.61 133.39 136.17 141.73 147.28999 152.85001 155.63 161.19 163.97 169.53 175.09 177.87 180.64999 186.21001 191.77 197.33 202.89 205.67 211.23 216.78999 219.57001 227.89999 233.16 238.16 240.38 245.38"
           y="0"
           sodipodi:role="line"
           id="tspan232">Asociación entre impunidad y fuente de fuego en México</tspan></text>
</g><g
       id="g234" /><g
       id="g236"><text
         transform="matrix(1,0,0,-1,108.9,345.19)"
         style="font-variant:normal;font-weight:normal;font-size:13px;font-family:Helvetica;-inkscape-font-specification:Helvetica;writing-mode:lr-tb;fill:#000000;fill-opacity:1;fill-rule:nonzero;stroke:none"
         id="text238"><tspan
           x="0 3.6140001 14.443 21.671 28.899 36.126999 39.013 46.241001 53.469002 60.696999 64.310997 71.539001 78.039001 85.266998 91.766998 94.653 101.881 109.109 116.337 119.951 127.179 130.793 137.293 141.817 144.703 155.532 158.418 165.646 172.87399 175.75999 182.98801 189.48801 193.10201 199.60201 203.216 209.716"
           y="0"
           sodipodi:role="line"
           id="tspan240">Impunidad asociada a criminales y se</tspan></text>
<text
         transform="matrix(1,0,0,-1,65.78,330.93)"
         style="font-variant:normal;font-weight:normal;font-size:13px;font-family:Helvetica;-inkscape-font-specification:Helvetica;writing-mode:lr-tb;fill:#000000;fill-opacity:1;fill-rule:nonzero;stroke:none"
         id="text242"><tspan
           x="0 7.2280002 10.114 17.341999 21.671 28.899 36.126999 39.741001 42.626999 49.855 53.078999 60.306999 64.960999 75.790001 83.017998 89.517998 92.403999 99.632004 106.86 110.474 117.702 124.93 128.54401 135.772 140.29601 147.524 154.752 161.98 168.48 172.09399 182.923 185.80901 188.69501 191.58099 195.19501 202.423 206.752 213.98 220.48 224.09399 230.59399 234.20799 241.436 248.664 252.278 259.50601 266.73401 273.96201 276.84799 284.07599 288.73001 295.95801"
           y="0"
           sodipodi:role="line"
           id="tspan244">pierde información en grupos militares y de gobierno</tspan></text>
</g><g
       id="g246" /><g
       id="g248" /><g
       id="g250" /><g
       id="g252" /></g></svg>